<?xml version="1.0" encoding="utf-8"?>
<!-- Generator: Adobe Illustrator 25.2.3, SVG Export Plug-In . SVG Version: 6.00 Build 0)  -->
<svg version="1.1" id="Layer_1" xmlns="http://www.w3.org/2000/svg" xmlns:xlink="http://www.w3.org/1999/xlink" x="0px" y="0px"
	 viewBox="0 0 900.7 200" style="enable-background:new 0 0 900.7 200;" xml:space="preserve">
<style type="text/css">
	.st0{fill:#0B2643;}
	.st1{fill-rule:evenodd;clip-rule:evenodd;fill:url(#Rectangle_2_);}
	.st2{enable-background:new    ;}
	.st3{fill:#FFFFFF;}
	.st4{fill-rule:evenodd;clip-rule:evenodd;fill:#FFFFFF;}
</style>
<g>
	<path id="Nettbureau" class="st0" d="M269,143V85.5l38,57.5h16.8V59.1H307v57.6l-38-57.6h-16.8V143H269z M365.5,144.1
		c16.4,0,27.5-9.7,31.1-22h-18.1c-2.2,4.4-6.1,8-13.3,8c-8.4,0-15.1-5.5-16-15.4h48.6c0.4-2.2,0.5-4.3,0.5-6.5
		c0-19.8-13.6-32.9-32.8-32.9c-19.7,0-33.4,13.3-33.4,34.3C332.1,130.6,346.2,144.1,365.5,144.1z M380.9,103.5h-31.6
		c1.3-9.1,7.7-14.3,15.7-14.3C373.7,89.2,380.6,94.8,380.9,103.5z M441,143v-14.2h-7.8c-5.3,0-7.1-1.9-7.1-6.4V90.3H444V76.5h-17.9
		V60.1h-16.9v16.4h-7.9v13.8h7.9v32c0,15.2,8.5,20.6,21.2,20.6H441z M483.7,143v-14.2h-7.8c-5.3,0-7.1-1.9-7.1-6.4V90.3h14.9V76.5
		h-14.9V60.1h-16.9v16.4H444v13.8h7.9v32c0,15.2,8.5,20.6,21.2,20.6H483.7z M530.7,144.1c17,0,30.4-13.8,30.4-34.6
		s-13.3-34.1-30.4-34.1c-10.1,0-17.9,4.7-22,10.8v-32h-16.8V143h16.8v-9.5C512.8,139.3,520.2,144.1,530.7,144.1z M526.2,129.3
		c-9,0-17.5-7-17.5-19.6c0-12.6,8.5-19.6,17.5-19.6c9.1,0,17.6,6.7,17.6,19.3C543.9,122.1,535.4,129.3,526.2,129.3z M595.4,143.8
		c8.3,0,15.6-3.6,19.8-9.2v8.4h16.9V76.5h-16.9v36.6c0,10.7-5.8,16.4-14.9,16.4c-8.9,0-14.8-5.8-14.8-16.4V76.5h-16.8v39
		C568.8,133.8,579.9,143.8,595.4,143.8z M659.6,143v-33.1c0-12.8,6-16.7,16-16.7h4.4V75.6c-9.2,0-16.2,4.4-20.4,11.3V76.5h-16.8V143
		H659.6z M718.4,144.1c16.4,0,27.5-9.7,31.1-22h-18.1c-2.2,4.4-6.1,8-13.3,8c-8.4,0-15.1-5.5-16-15.4h48.6c0.4-2.2,0.5-4.3,0.5-6.5
		c0-19.8-13.6-32.9-32.8-32.9c-19.7,0-33.4,13.3-33.4,34.3C685.1,130.6,699.1,144.1,718.4,144.1z M733.8,103.5h-31.6
		c1.3-9.1,7.7-14.3,15.7-14.3C726.6,89.2,733.5,94.8,733.8,103.5z M788.4,144.1c10.6,0,18.1-5,22.1-10.8v9.7h16.9V76.5h-16.9V86
		c-4-5.5-11.3-10.6-22-10.6c-16.9,0-30.4,13.3-30.4,34.1S771.6,144.1,788.4,144.1z M789.9,129.3c-9,0-17.5-7.2-17.5-19.8
		c0-12.6,8.5-19.3,17.5-19.3c9.2,0,17.6,7,17.6,19.6C807.5,122.4,799.1,129.3,789.9,129.3z M864,143.8c8.3,0,15.6-3.6,19.8-9.2v8.4
		h16.9V76.5h-16.9v36.6c0,10.7-5.8,16.4-14.9,16.4c-8.9,0-14.8-5.8-14.8-16.4V76.5h-16.8v39C837.4,133.8,848.5,143.8,864,143.8z"/>
	<g id="Group" transform="translate(39.000000, 44.000000)">
		
			<linearGradient id="Rectangle_2_" gradientUnits="userSpaceOnUse" x1="-545.65" y1="593.015" x2="-544.65" y2="592.015" gradientTransform="matrix(200 0 0 -200 109091 118559)">
			<stop  offset="0" style="stop-color:#1D5DA2"/>
			<stop  offset="1" style="stop-color:#092644"/>
		</linearGradient>
		<path id="Rectangle" class="st1" d="M-27-44h176c6.6,0,12,5.4,12,12v176c0,6.6-5.4,12-12,12H-27c-6.6,0-12-5.4-12-12V-32
			C-39-38.6-33.6-44-27-44z"/>
		<g class="st2">
			<path class="st3" d="M50.4,24c3.5,3.8,5.3,9,5.3,15.7V69H40.3V41.7c0-3.4-0.9-6-2.6-7.8c-1.7-1.9-4.1-2.8-7-2.8
				c-2.9,0-5.3,0.9-7,2.8c-1.7,1.9-2.6,4.5-2.6,7.8V69H5.7V18.8h15.4v6.7c1.6-2.2,3.7-4,6.3-5.3c2.6-1.3,5.6-1.9,8.9-1.9
				C42.2,18.2,46.9,20.1,50.4,24z"/>
			<path class="st3" d="M88,20.2c2.7-1.4,5.8-2.2,9.3-2.2c4.1,0,7.9,1.1,11.2,3.2c3.4,2.1,6,5.1,8,9c1.9,3.9,2.9,8.4,2.9,13.6
				c0,5.2-1,9.7-2.9,13.6c-2,3.9-4.6,7-8,9.1c-3.4,2.1-7.1,3.2-11.2,3.2c-3.5,0-6.6-0.7-9.3-2.1c-2.6-1.4-4.7-3.3-6.2-5.6v7H66.4
				V2.4h15.4v23.5C83.2,23.5,85.3,21.7,88,20.2z M100.5,34.8c-2.1-2.2-4.8-3.3-7.9-3.3c-3.1,0-5.7,1.1-7.8,3.3
				c-2.1,2.2-3.2,5.3-3.2,9.1c0,3.8,1.1,6.9,3.2,9.1c2.1,2.2,4.7,3.3,7.8,3.3c3.1,0,5.7-1.1,7.8-3.4s3.2-5.3,3.2-9.1
				C103.7,40,102.6,36.9,100.5,34.8z"/>
		</g>
		<rect id="Rectangle_1_" x="21" y="96" class="st4" width="83" height="12"/>
	</g>
</g>
</svg>
